<svg width="40" height="40" viewBox="0 0 40 40" fill="none" xmlns="http://www.w3.org/2000/svg">
<path d="M2.73749 0.3125L5.87968 35.5884L19.979 39.5197L34.1178 35.5741L37.2625 0.3125H2.73749ZM30.7347 8.39437L29.6887 20.1459L29.6919 20.2094L29.6875 20.3553V20.3541L28.9444 28.5709L28.8625 29.3009L20 31.7522V31.7525L19.9931 31.7584L11.1459 29.2934L10.5469 22.5H14.8853L15.1931 25.9544L20.0012 27.2575L20 27.26V27.2594L24.8259 25.9378L25.3359 20.3125H15.2475L15.1609 19.3616L14.9637 17.1337L14.8603 15.9375H25.7194L26.1144 11.5625H9.57499L9.48842 10.6122L9.29155 8.38375L9.1878 7.1875H30.8381L30.7347 8.39437Z" fill="#1572B6"/>
</svg>
