<svg width="33" height="32" viewBox="0 0 33 32" fill="none" xmlns="http://www.w3.org/2000/svg">
<path d="M10.56 1.91992C5.82942 1.91992 1.97998 5.65271 1.97998 10.2399V21.7599C1.97998 26.3471 5.82942 30.0799 10.56 30.0799H22.44C27.1705 30.0799 31.02 26.3471 31.02 21.7599V10.2399C31.02 5.65271 27.1705 1.91992 22.44 1.91992H10.56ZM10.56 3.19992H22.44C26.4571 3.19992 29.7 6.34457 29.7 10.2399V21.7599C29.7 25.6553 26.4571 28.7999 22.44 28.7999H10.56C6.5429 28.7999 3.29998 25.6553 3.29998 21.7599V10.2399C3.29998 6.34457 6.5429 3.19992 10.56 3.19992ZM24.42 7.03992C24.0699 7.03992 23.7341 7.17478 23.4866 7.41483C23.2391 7.65487 23.1 7.98044 23.1 8.31992C23.1 8.6594 23.2391 8.98497 23.4866 9.22502C23.7341 9.46506 24.0699 9.59992 24.42 9.59992C24.7701 9.59992 25.1058 9.46506 25.3534 9.22502C25.6009 8.98497 25.74 8.6594 25.74 8.31992C25.74 7.98044 25.6009 7.65487 25.3534 7.41483C25.1058 7.17478 24.7701 7.03992 24.42 7.03992ZM16.5 8.95992C12.4982 8.95992 9.23998 12.1194 9.23998 15.9999C9.23998 19.8804 12.4982 23.0399 16.5 23.0399C20.5018 23.0399 23.76 19.8804 23.76 15.9999C23.76 12.1194 20.5018 8.95992 16.5 8.95992ZM16.5 10.2399C19.7884 10.2399 22.44 12.8112 22.44 15.9999C22.44 19.1887 19.7884 21.7599 16.5 21.7599C13.2116 21.7599 10.56 19.1887 10.56 15.9999C10.56 12.8112 13.2116 10.2399 16.5 10.2399Z" fill="white"/>
</svg>
