<svg width="33" height="32" viewBox="0 0 33 32" fill="none" xmlns="http://www.w3.org/2000/svg">
<path d="M16.5 1.27979C8.12549 1.27979 1.32001 7.87904 1.32001 15.9998C1.32001 24.1205 8.12549 30.7198 16.5 30.7198C24.8745 30.7198 31.68 24.1205 31.68 15.9998C31.68 7.87904 24.8745 1.27979 16.5 1.27979ZM16.5 2.55979C24.1608 2.55979 30.36 8.57109 30.36 15.9998C30.36 16.0455 30.3566 16.0905 30.3561 16.136C29.934 16.0983 29.4462 16.0624 28.826 16.041C27.9491 16.0109 26.8437 16.0196 25.5905 16.0798C25.6369 15.766 25.6695 15.4477 25.6704 15.121C25.7343 13.9226 25.3193 12.8014 24.6443 11.811C24.8074 11.2647 24.9987 10.5695 25.0465 9.78104C25.101 8.8823 25.021 7.88572 24.2769 7.21229L24.0861 7.03978H23.8258C22.0549 7.03978 20.8428 7.75864 20.1016 8.32854C19.0315 7.92684 17.8281 7.67978 16.5 7.67978C15.1644 7.67978 13.9495 7.93029 12.8352 8.33104C12.0944 7.76087 10.8813 7.03978 9.10852 7.03978H8.84942L8.65864 7.21104C7.93384 7.86367 7.86706 8.83291 7.91227 9.72729C7.95214 10.5159 8.13235 11.2332 8.29255 11.806C7.60617 12.8157 7.19427 13.9659 7.19427 15.1035C7.19427 15.431 7.22567 15.7502 7.27161 16.0648C6.07981 16.0112 5.01739 16.0009 4.17399 16.0298C3.55379 16.0511 3.066 16.0866 2.64387 16.1248C2.64348 16.083 2.64001 16.0417 2.64001 15.9998C2.64001 8.57109 8.83917 2.55979 16.5 2.55979ZM9.50169 8.40353C10.8333 8.52589 11.8351 9.10249 12.299 9.50229L12.6083 9.76729L12.9899 9.61603C14.0336 9.19928 15.1978 8.95978 16.5 8.95978C17.8022 8.95978 18.9667 9.20047 19.9315 9.60979L20.3182 9.77479L20.634 9.50229C21.098 9.10235 22.1015 8.52558 23.4339 8.40353C23.611 8.68832 23.7649 9.09333 23.7278 9.70603C23.6833 10.4393 23.481 11.238 23.3282 11.7123L23.2289 12.021L23.4261 12.2823C24.0792 13.1458 24.4122 14.0804 24.3556 15.0685L24.3543 15.086V15.1035C24.3543 16.7006 23.7612 17.9789 22.498 18.926C21.2349 19.8732 19.2408 20.4798 16.4343 20.4798C13.6278 20.4798 11.6324 19.8732 10.3692 18.926C9.10606 17.9789 8.51427 16.7006 8.51427 15.1035C8.51427 14.1661 8.86335 13.1349 9.50813 12.2823L9.70149 12.0273L9.60868 11.7235C9.45574 11.2193 9.26827 10.4024 9.23098 9.66478C9.19997 9.05127 9.34971 8.66348 9.50169 8.40353ZM5.86395 16.6535C6.33037 16.6593 6.86497 16.6837 7.40052 16.7098C7.45168 16.9093 7.51003 17.1056 7.58098 17.2973C5.39813 17.3419 3.76513 17.5548 2.7586 17.7373C2.71604 17.4171 2.68215 17.0942 2.66321 16.7673C3.40706 16.6988 4.45567 16.6361 5.86395 16.6535ZM27.1361 16.6635C28.5434 16.6462 29.5916 16.709 30.3355 16.7773C30.3166 17.0995 30.2833 17.4178 30.2414 17.7335C29.1989 17.5481 27.5218 17.3353 25.2824 17.301C25.3519 17.1132 25.4098 16.9202 25.4603 16.7248C26.0511 16.6941 26.6274 16.6698 27.1361 16.6635ZM7.862 17.9323C8.25585 18.6976 8.81861 19.3809 9.56227 19.9385C10.579 20.7009 11.9009 21.2336 13.5145 21.5185C13.3034 21.7289 13.1114 21.9598 12.9409 22.2035L12.9009 22.1698C12.9046 22.1658 12.5728 22.3267 12.0772 22.3698C11.5816 22.4128 10.9703 22.3998 10.4285 22.3998C9.62002 22.3998 9.26391 22.0294 8.69473 21.3548C8.37955 20.9429 7.99531 20.6093 7.62223 20.356C7.24022 20.0967 6.91434 19.9137 6.51106 19.8485L6.45692 19.8398H6.40149C6.09349 19.8398 5.79546 19.8614 5.5172 20.1698C5.37806 20.324 5.28217 20.6094 5.34446 20.851C5.40675 21.0926 5.56437 21.2411 5.7054 21.3323C6.60744 21.9154 6.76685 23.0696 7.3322 24.096C7.86014 25.1161 8.99954 25.5998 10.1643 25.5998H11.88V28.6735C7.23876 27.0849 3.7387 23.1707 2.85915 18.3698C3.86954 18.1852 5.56152 17.9634 7.862 17.9323ZM25.0027 17.9373C27.3541 17.9568 29.0935 18.1784 30.1422 18.366C29.2638 23.1687 25.7625 27.0845 21.12 28.6735V25.3435C21.12 24.3294 20.7766 23.2111 20.179 22.2785C19.9976 21.9954 19.7841 21.7276 19.5461 21.4873C21.0741 21.1946 22.3294 20.671 23.3063 19.9385C24.0483 19.3821 24.6098 18.7009 25.0027 17.9373ZM15.6415 21.8235H17.49C18.0265 21.8235 18.5991 22.2381 19.0575 22.9535C19.5159 23.6689 19.8 24.6297 19.8 25.3435V29.0548C18.7423 29.3049 17.6377 29.4398 16.5 29.4398C15.3623 29.4398 14.2577 29.3049 13.2 29.0548V25.3435C13.2 24.6455 13.5088 23.687 13.9979 22.9685C14.4871 22.25 15.105 21.8235 15.6415 21.8235ZM8.12368 22.5798C8.69509 23.1545 9.38687 23.6798 10.4285 23.6798C10.9428 23.6798 11.5846 23.6978 12.1945 23.6448C12.1967 23.6446 12.1988 23.6437 12.201 23.6435C12.1206 23.8675 12.0607 24.0929 12.0102 24.3198H10.1643C9.35027 24.3198 8.77522 24.0346 8.5104 23.521L8.50524 23.5123L8.50137 23.5048C8.39287 23.3093 8.25043 22.9186 8.12368 22.5798Z" fill="white"/>
</svg>
