<svg width="33" height="32" viewBox="0 0 33 32" fill="none" xmlns="http://www.w3.org/2000/svg">
<path d="M5.94001 2.56006C4.12533 2.56006 2.64001 4.00037 2.64001 5.76006V26.2401C2.64001 27.9997 4.12533 29.4401 5.94001 29.4401H27.06C28.8747 29.4401 30.36 27.9997 30.36 26.2401V5.76006C30.36 4.00037 28.8747 2.56006 27.06 2.56006H5.94001ZM5.94001 3.84006H27.06C28.1612 3.84006 29.04 4.69223 29.04 5.76006V26.2401C29.04 27.3079 28.1612 28.1601 27.06 28.1601H5.94001C4.83882 28.1601 3.96001 27.3079 3.96001 26.2401V5.76006C3.96001 4.69223 4.83882 3.84006 5.94001 3.84006ZM9.24001 7.04756C8.51717 7.04756 7.8667 7.25707 7.38505 7.65006C6.90341 8.04305 6.60775 8.63015 6.60775 9.25881C6.60775 10.4538 7.67666 11.3854 9.03634 11.4776C9.0372 11.478 9.03806 11.4784 9.03892 11.4788C9.10371 11.5002 9.17157 11.5116 9.24001 11.5126C10.7402 11.5126 11.8723 10.4936 11.8723 9.25881C11.8722 9.24755 11.8717 9.23629 11.871 9.22506C11.8038 8.00891 10.6857 7.04756 9.24001 7.04756ZM9.24001 8.31256C10.1589 8.31256 10.5217 8.71048 10.5613 9.27506C10.5533 9.82306 10.2037 10.2476 9.24001 10.2476C8.32565 10.2476 7.91228 9.79348 7.91228 9.25881C7.91228 8.99147 8.01288 8.79001 8.22423 8.61756C8.43559 8.44511 8.77486 8.31256 9.24001 8.31256ZM7.26001 12.1601C7.08498 12.1601 6.91711 12.2275 6.79334 12.3475C6.66957 12.4675 6.60003 12.6303 6.60001 12.8001V24.9601C6.60003 25.1298 6.66957 25.2926 6.79334 25.4126C6.91711 25.5326 7.08498 25.6 7.26001 25.6001H11.22C11.3951 25.6 11.5629 25.5326 11.6867 25.4126C11.8105 25.2926 11.88 25.1298 11.88 24.9601V21.2063V12.8001C11.88 12.6303 11.8105 12.4675 11.6867 12.3475C11.5629 12.2275 11.3951 12.1601 11.22 12.1601H7.26001ZM13.2 12.1601C13.025 12.1601 12.8571 12.2275 12.7333 12.3475C12.6096 12.4675 12.54 12.6303 12.54 12.8001V24.9601C12.54 25.1298 12.6096 25.2926 12.7333 25.4126C12.8571 25.5326 13.025 25.6 13.2 25.6001H17.16C17.3351 25.6 17.5029 25.5326 17.6267 25.4126C17.7505 25.2926 17.82 25.1298 17.82 24.9601V18.5601C17.82 18.0291 17.9694 17.5009 18.2325 17.1551C18.4956 16.8092 18.8275 16.6017 19.4584 16.6126C20.109 16.6234 20.4534 16.8395 20.714 17.1788C20.9745 17.5181 21.12 18.0267 21.12 18.5601V24.9601C21.12 25.1298 21.1896 25.2926 21.3133 25.4126C21.4371 25.5326 21.605 25.6 21.78 25.6001H25.74C25.9151 25.6 26.0829 25.5326 26.2067 25.4126C26.3305 25.2926 26.4 25.1298 26.4 24.9601V18.0876C26.4 16.1922 25.8211 14.6908 24.8286 13.6751C23.8362 12.6593 22.456 12.1601 20.9963 12.1601C19.6089 12.1601 18.5532 12.6112 17.82 13.0713V12.8001C17.82 12.6303 17.7505 12.4675 17.6267 12.3475C17.5029 12.2275 17.3351 12.1601 17.16 12.1601H13.2ZM7.92001 13.4401H10.56V21.2063V24.3201H7.92001V13.4401ZM13.86 13.4401H16.5V14.4388C16.5001 14.573 16.5436 14.7038 16.6245 14.8127C16.7054 14.9216 16.8195 15.0031 16.9507 15.0456C17.082 15.0882 17.2237 15.0897 17.3559 15.0499C17.488 15.0101 17.604 14.931 17.6872 14.8238C17.6872 14.8238 18.7237 13.4401 20.9963 13.4401C22.1535 13.4401 23.1458 13.8129 23.8709 14.5551C24.596 15.2972 25.08 16.4405 25.08 18.0876V24.3201H22.44V18.5601C22.44 17.8134 22.2555 17.0414 21.7736 16.4138C21.2916 15.7862 20.481 15.3492 19.4816 15.3326C18.4771 15.3153 17.6534 15.7613 17.1703 16.3963C16.6873 17.0313 16.5 17.811 16.5 18.5601V24.3201H13.86V13.4401Z" fill="white"/>
</svg>
