<svg width="33" height="32" viewBox="0 0 33 32" fill="none" xmlns="http://www.w3.org/2000/svg">
<path d="M5.94001 2.56006C4.12533 2.56006 2.64001 4.00037 2.64001 5.76006V26.2401C2.64001 27.9997 4.12533 29.4401 5.94001 29.4401H17.0492C17.1204 29.4515 17.1932 29.4515 17.2644 29.4401H21.0092C21.0804 29.4515 21.1532 29.4515 21.2244 29.4401H27.06C28.8747 29.4401 30.36 27.9997 30.36 26.2401V5.76006C30.36 4.00037 28.8747 2.56006 27.06 2.56006H5.94001ZM5.94001 3.84006H27.06C28.1612 3.84006 29.04 4.69223 29.04 5.76006V26.2401C29.04 27.3079 28.1612 28.1601 27.06 28.1601H21.78V19.2001H24.3014L25.2257 14.7201H21.78V13.4401C21.78 13.0833 21.815 13.0554 21.9386 12.9776C22.0621 12.8997 22.4439 12.8001 23.1 12.8001H25.08V9.19631L24.7036 9.02256C24.7036 9.02256 23.1876 8.32006 21.12 8.32006C19.635 8.32006 18.4151 8.89379 17.6344 9.84006C16.8537 10.7863 16.5 12.0534 16.5 13.4401V14.7201H14.52V19.2001H16.5V28.1601H5.94001C4.83882 28.1601 3.96001 27.3079 3.96001 26.2401V5.76006C3.96001 4.69223 4.83882 3.84006 5.94001 3.84006ZM21.12 9.60006C22.4922 9.60006 23.3557 9.89347 23.76 10.0488V11.5201H23.1C22.3405 11.5201 21.7318 11.581 21.2193 11.9038C20.7067 12.2266 20.46 12.8394 20.46 13.4401V16.0001H23.6143L23.2186 17.9201H20.46V28.1601H17.82V17.9201H15.84V16.0001H17.82V13.4401C17.82 12.2667 18.1263 11.2938 18.6656 10.6401C19.205 9.98633 19.965 9.60006 21.12 9.60006Z" fill="white"/>
</svg>
