<svg width="40" height="40" viewBox="0 0 40 40" fill="none" xmlns="http://www.w3.org/2000/svg">
<path d="M0.439941 0.440186H39.5599V39.5605H0.439941V0.440186Z" fill="#F0DB4F"/>
<path d="M36.3584 30.2298C36.0719 28.4451 34.9081 26.946 31.4609 25.5482C30.2634 24.9979 28.9284 24.6038 28.5306 23.6963C28.3894 23.1682 28.3706 22.8707 28.46 22.551C28.7166 21.5135 29.955 21.1901 30.9366 21.4876C31.5687 21.6995 32.1672 22.1867 32.5281 22.9638C34.2162 21.8707 34.2128 21.8779 35.3916 21.1267C34.96 20.4576 34.7297 20.1488 34.4472 19.8626C33.4319 18.7285 32.0484 18.1445 29.8359 18.1892L28.6834 18.3382C27.5791 18.6173 26.5266 19.197 25.9094 19.9742C24.0575 22.0754 24.5856 25.7529 26.8391 27.2663C29.0591 28.9326 32.3203 29.3117 32.7369 30.8698C33.1422 32.7773 31.335 33.3948 29.5387 33.1754C28.215 32.9001 27.4787 32.2273 26.6828 31.0038C25.2178 31.8517 25.2178 31.8517 23.7116 32.7179C24.0687 33.4988 24.4441 33.8523 25.0428 34.5288C27.8766 37.4032 34.9678 37.262 36.2397 32.9113C36.2912 32.762 36.6337 31.7657 36.3584 30.2298ZM21.7069 18.4195H18.0478L18.0328 27.8795C18.0328 29.8913 18.1369 31.7357 17.8097 32.301C17.2744 33.4129 15.8872 33.2751 15.255 33.0595C14.6116 32.7432 14.2844 32.2935 13.9053 31.6579C13.8012 31.4754 13.7231 31.3342 13.6969 31.3232L10.7219 33.1451C11.2166 34.1604 11.9453 35.0417 12.8787 35.6142C14.2731 36.451 16.1472 36.7076 18.1072 36.2576C19.3828 35.886 20.4834 35.1163 21.0597 33.9448C21.8928 32.4088 21.7141 30.5498 21.7066 28.4935C21.7253 25.1388 21.7069 21.7848 21.7069 18.4195Z" fill="#323330"/>
</svg>
