<svg width="40" height="40" viewBox="0 0 40 40" fill="none" xmlns="http://www.w3.org/2000/svg">
<path d="M20 10.3247C9.45627 10.3247 0.908142 14.6566 0.908142 20C0.908142 25.3435 9.45627 29.6753 20 29.6753C30.5438 29.6753 39.0919 25.3435 39.0919 20C39.0919 14.6566 30.5438 10.3247 20 10.3247ZM15.0322 21.885C14.5766 22.3113 14.0706 22.4872 13.5135 22.6685C12.9563 22.85 12.2472 22.8125 11.385 22.8125H9.43095L8.88939 25.9375H6.60783L8.64377 15.3125H13.0313C14.3513 15.3125 15.3141 15.6922 15.9194 16.385C16.5247 17.0778 16.7066 18.0613 16.4653 19.3028C16.3656 19.8144 16.1978 20.29 15.961 20.7138C15.7155 21.151 15.402 21.5464 15.0322 21.885ZM21.6919 22.8125L22.5922 18.3063C22.6947 17.7788 22.6572 17.3869 22.4794 17.1953C22.3013 17.0035 21.9225 16.875 21.3435 16.875H19.5341L18.3681 22.8125H16.1044L18.1403 12.5H20.4041L19.8628 15.3125H21.8794C23.1485 15.3125 24.0235 15.5672 24.505 16.0097C24.9866 16.4522 25.131 17.0585 24.9385 18.0497L23.9913 22.8125H21.6919ZM34.2728 19.3194C34.1735 19.831 34.0053 20.2985 33.7688 20.7219C33.5319 21.146 33.2225 21.5338 32.8403 21.885C32.3847 22.3113 31.8785 22.4872 31.3216 22.6685C30.7647 22.85 30.055 22.8125 29.1928 22.8125H27.2388L26.6975 25.9375H24.416L26.4516 15.3125H30.8394C32.1594 15.3125 33.1222 15.6922 33.7272 16.385C34.3319 17.0778 34.5141 18.0781 34.2728 19.3194ZM29.9747 16.875H28.4119L27.5597 21.25H28.9478C29.8672 21.25 30.5528 21.1594 31.0028 20.8125C31.4535 20.4663 31.7569 19.9288 31.9147 19.1185C32.066 18.34 31.9972 17.7328 31.7085 17.4128C31.4194 17.0928 30.8416 16.875 29.9747 16.875ZM12.1669 16.875H10.6038L9.75158 21.25H11.1394C12.0591 21.25 12.7444 21.1594 13.1947 20.8125C13.645 20.4663 13.9488 19.9288 14.1063 19.1185C14.2575 18.34 14.1888 17.7328 13.9 17.4128C13.6113 17.0928 13.0338 16.875 12.1669 16.875Z" fill="#6181B6"/>
</svg>
